<mxfile host="app.diagrams.net" modified="2023-05-28T22:28:32.730Z" agent="Mozilla/5.0 (Windows NT 10.0; Win64; x64) AppleWebKit/537.36 (KHTML, like Gecko) Chrome/113.0.0.0 Safari/537.36" etag="W_VuLjWYZ3fzbUfPGNNJ" version="21.3.5" type="device">
  <diagram name="Page-1" id="5f0bae14-7c28-e335-631c-24af17079c00">
    <mxGraphModel dx="1434" dy="756" grid="1" gridSize="10" guides="1" tooltips="1" connect="1" arrows="1" fold="1" page="1" pageScale="1" pageWidth="1100" pageHeight="850" background="none" math="0" shadow="0">
      <root>
        <mxCell id="0" />
        <mxCell id="1" parent="0" />
        <mxCell id="39150e848f15840c-1" value="Frontend" style="verticalAlign=top;align=left;spacingTop=8;spacingLeft=2;spacingRight=12;shape=cube;size=10;direction=south;fontStyle=4;html=1;rounded=0;shadow=0;comic=0;labelBackgroundColor=none;strokeWidth=1;fontFamily=Verdana;fontSize=12" parent="1" vertex="1">
          <mxGeometry x="40" y="42.5" width="180" height="117.5" as="geometry" />
        </mxCell>
        <mxCell id="39150e848f15840c-2" value="Database" style="verticalAlign=top;align=left;spacingTop=8;spacingLeft=2;spacingRight=12;shape=cube;size=10;direction=south;fontStyle=4;html=1;rounded=0;shadow=0;comic=0;labelBackgroundColor=none;strokeWidth=1;fontFamily=Verdana;fontSize=12" parent="1" vertex="1">
          <mxGeometry x="870" y="40" width="180" height="120" as="geometry" />
        </mxCell>
        <mxCell id="39150e848f15840c-3" value="Backend" style="verticalAlign=top;align=left;spacingTop=8;spacingLeft=2;spacingRight=12;shape=cube;size=10;direction=south;fontStyle=4;html=1;rounded=0;shadow=0;comic=0;labelBackgroundColor=none;strokeWidth=1;fontFamily=Verdana;fontSize=12" parent="1" vertex="1">
          <mxGeometry x="315" y="42.5" width="470" height="260" as="geometry" />
        </mxCell>
        <mxCell id="39150e848f15840c-5" value="Nuxt Website" style="shape=component;align=left;spacingLeft=36;rounded=0;shadow=0;comic=0;labelBackgroundColor=none;strokeWidth=1;fontFamily=Verdana;fontSize=12;html=1;" parent="1" vertex="1">
          <mxGeometry x="60" y="85" width="130" height="60" as="geometry" />
        </mxCell>
        <mxCell id="39150e848f15840c-8" value="«artifact»&lt;br&gt;Postgresql" style="html=1;rounded=0;shadow=0;comic=0;labelBackgroundColor=none;strokeWidth=1;fontFamily=Verdana;fontSize=12;align=center;" parent="1" vertex="1">
          <mxGeometry x="900" y="90" width="110" height="50" as="geometry" />
        </mxCell>
        <mxCell id="39150e848f15840c-10" value="Authenticator" style="shape=component;align=left;spacingLeft=36;rounded=0;shadow=0;comic=0;labelBackgroundColor=none;strokeWidth=1;fontFamily=Verdana;fontSize=12;html=1;" parent="1" vertex="1">
          <mxGeometry x="335" y="102.5" width="130" height="60" as="geometry" />
        </mxCell>
        <mxCell id="oFv0lDldM3Qz42orOGgQ-1" value="Controllers" style="shape=component;align=left;spacingLeft=36;rounded=0;shadow=0;comic=0;labelBackgroundColor=none;strokeWidth=1;fontFamily=Verdana;fontSize=12;html=1;" vertex="1" parent="1">
          <mxGeometry x="555" y="102.5" width="130" height="60" as="geometry" />
        </mxCell>
        <mxCell id="oFv0lDldM3Qz42orOGgQ-2" value="Services" style="shape=component;align=left;spacingLeft=36;rounded=0;shadow=0;comic=0;labelBackgroundColor=none;strokeWidth=1;fontFamily=Verdana;fontSize=12;html=1;" vertex="1" parent="1">
          <mxGeometry x="425" y="212.5" width="130" height="60" as="geometry" />
        </mxCell>
        <mxCell id="oFv0lDldM3Qz42orOGgQ-3" style="rounded=0;html=1;labelBackgroundColor=none;startArrow=none;startFill=0;startSize=8;endArrow=open;endFill=0;endSize=16;fontFamily=Verdana;fontSize=12;dashed=1;entryX=1;entryY=0.5;entryDx=0;entryDy=0;" edge="1" parent="1" target="39150e848f15840c-10">
          <mxGeometry relative="1" as="geometry">
            <mxPoint x="575" y="132.5" as="sourcePoint" />
            <mxPoint x="455" y="202.5" as="targetPoint" />
          </mxGeometry>
        </mxCell>
        <mxCell id="oFv0lDldM3Qz42orOGgQ-4" style="rounded=0;html=1;labelBackgroundColor=none;startArrow=none;startFill=0;startSize=8;endArrow=open;endFill=0;endSize=16;fontFamily=Verdana;fontSize=12;dashed=1;entryX=0.75;entryY=0;entryDx=0;entryDy=0;exitX=0.25;exitY=1;exitDx=0;exitDy=0;" edge="1" parent="1" source="oFv0lDldM3Qz42orOGgQ-1" target="oFv0lDldM3Qz42orOGgQ-2">
          <mxGeometry relative="1" as="geometry">
            <mxPoint x="795" y="132" as="sourcePoint" />
            <mxPoint x="685" y="132" as="targetPoint" />
          </mxGeometry>
        </mxCell>
        <mxCell id="oFv0lDldM3Qz42orOGgQ-5" value="«artifact»&lt;br&gt;&lt;b&gt;Prisma ORM&lt;/b&gt;" style="html=1;rounded=0;shadow=0;comic=0;labelBackgroundColor=none;strokeWidth=1;fontFamily=Verdana;fontSize=12;align=center;" vertex="1" parent="1">
          <mxGeometry x="625" y="217.5" width="110" height="50" as="geometry" />
        </mxCell>
        <mxCell id="oFv0lDldM3Qz42orOGgQ-6" style="rounded=0;html=1;labelBackgroundColor=none;startArrow=none;startFill=0;startSize=8;endArrow=open;endFill=0;endSize=16;fontFamily=Verdana;fontSize=12;dashed=1;entryX=0;entryY=0.5;entryDx=0;entryDy=0;exitX=1;exitY=0.5;exitDx=0;exitDy=0;" edge="1" parent="1" source="oFv0lDldM3Qz42orOGgQ-2" target="oFv0lDldM3Qz42orOGgQ-5">
          <mxGeometry relative="1" as="geometry">
            <mxPoint x="598" y="172.5" as="sourcePoint" />
            <mxPoint x="533" y="222.5" as="targetPoint" />
          </mxGeometry>
        </mxCell>
        <mxCell id="oFv0lDldM3Qz42orOGgQ-7" style="rounded=0;html=1;labelBackgroundColor=none;startArrow=none;startFill=0;startSize=8;endArrow=open;endFill=0;endSize=16;fontFamily=Verdana;fontSize=12;dashed=1;entryX=1;entryY=0.5;entryDx=0;entryDy=0;exitX=0;exitY=0.7;exitDx=0;exitDy=0;" edge="1" parent="1" source="39150e848f15840c-10">
          <mxGeometry relative="1" as="geometry">
            <mxPoint x="300" y="114.5" as="sourcePoint" />
            <mxPoint x="190" y="114.5" as="targetPoint" />
          </mxGeometry>
        </mxCell>
        <mxCell id="oFv0lDldM3Qz42orOGgQ-8" style="rounded=0;html=1;labelBackgroundColor=none;startArrow=none;startFill=0;startSize=8;endArrow=open;endFill=0;endSize=16;fontFamily=Verdana;fontSize=12;dashed=1;exitX=0.75;exitY=0;exitDx=0;exitDy=0;" edge="1" parent="1" source="oFv0lDldM3Qz42orOGgQ-5" target="39150e848f15840c-8">
          <mxGeometry relative="1" as="geometry">
            <mxPoint x="565" y="252.5" as="sourcePoint" />
            <mxPoint x="635" y="252.5" as="targetPoint" />
          </mxGeometry>
        </mxCell>
        <mxCell id="oFv0lDldM3Qz42orOGgQ-9" value="Resumido" style="text;html=1;strokeColor=none;fillColor=none;align=center;verticalAlign=middle;whiteSpace=wrap;rounded=0;" vertex="1" parent="1">
          <mxGeometry x="40" y="10" width="60" height="30" as="geometry" />
        </mxCell>
        <mxCell id="oFv0lDldM3Qz42orOGgQ-10" value="Completo" style="text;html=1;strokeColor=none;fillColor=none;align=center;verticalAlign=middle;whiteSpace=wrap;rounded=0;" vertex="1" parent="1">
          <mxGeometry x="40" y="320" width="60" height="30" as="geometry" />
        </mxCell>
        <mxCell id="oFv0lDldM3Qz42orOGgQ-11" value="Frontend" style="verticalAlign=top;align=left;spacingTop=8;spacingLeft=2;spacingRight=12;shape=cube;size=10;direction=south;fontStyle=4;html=1;rounded=0;shadow=0;comic=0;labelBackgroundColor=none;strokeWidth=1;fontFamily=Verdana;fontSize=12" vertex="1" parent="1">
          <mxGeometry x="10" y="352.5" width="180" height="117.5" as="geometry" />
        </mxCell>
        <mxCell id="oFv0lDldM3Qz42orOGgQ-12" value="Database" style="verticalAlign=top;align=left;spacingTop=8;spacingLeft=2;spacingRight=12;shape=cube;size=10;direction=south;fontStyle=4;html=1;rounded=0;shadow=0;comic=0;labelBackgroundColor=none;strokeWidth=1;fontFamily=Verdana;fontSize=12" vertex="1" parent="1">
          <mxGeometry x="10" y="710" width="180" height="120" as="geometry" />
        </mxCell>
        <mxCell id="oFv0lDldM3Qz42orOGgQ-13" value="Backend" style="verticalAlign=top;align=left;spacingTop=8;spacingLeft=2;spacingRight=12;shape=cube;size=10;direction=south;fontStyle=4;html=1;rounded=0;shadow=0;comic=0;labelBackgroundColor=none;strokeWidth=1;fontFamily=Verdana;fontSize=12" vertex="1" parent="1">
          <mxGeometry x="200" y="352.5" width="890" height="487.5" as="geometry" />
        </mxCell>
        <mxCell id="oFv0lDldM3Qz42orOGgQ-14" value="Nuxt Website" style="shape=component;align=left;spacingLeft=36;rounded=0;shadow=0;comic=0;labelBackgroundColor=none;strokeWidth=1;fontFamily=Verdana;fontSize=12;html=1;" vertex="1" parent="1">
          <mxGeometry x="30" y="395" width="130" height="60" as="geometry" />
        </mxCell>
        <mxCell id="oFv0lDldM3Qz42orOGgQ-15" value="«artifact»&lt;br&gt;Postgresql" style="html=1;rounded=0;shadow=0;comic=0;labelBackgroundColor=none;strokeWidth=1;fontFamily=Verdana;fontSize=12;align=center;" vertex="1" parent="1">
          <mxGeometry x="40" y="760" width="110" height="50" as="geometry" />
        </mxCell>
        <mxCell id="oFv0lDldM3Qz42orOGgQ-16" value="Authenticator" style="shape=component;align=left;spacingLeft=36;rounded=0;shadow=0;comic=0;labelBackgroundColor=none;strokeWidth=1;fontFamily=Verdana;fontSize=12;html=1;" vertex="1" parent="1">
          <mxGeometry x="220" y="395" width="130" height="60" as="geometry" />
        </mxCell>
        <mxCell id="oFv0lDldM3Qz42orOGgQ-17" value="Categories&lt;br&gt;Controller" style="shape=component;align=left;spacingLeft=36;rounded=0;shadow=0;comic=0;labelBackgroundColor=none;strokeWidth=1;fontFamily=Verdana;fontSize=12;html=1;" vertex="1" parent="1">
          <mxGeometry x="215" y="522" width="130" height="60" as="geometry" />
        </mxCell>
        <mxCell id="oFv0lDldM3Qz42orOGgQ-21" value="«artifact»&lt;br&gt;&lt;b&gt;Prisma ORM&lt;/b&gt;" style="html=1;rounded=0;shadow=0;comic=0;labelBackgroundColor=none;strokeWidth=1;fontFamily=Verdana;fontSize=12;align=center;" vertex="1" parent="1">
          <mxGeometry x="575" y="760" width="110" height="50" as="geometry" />
        </mxCell>
        <mxCell id="oFv0lDldM3Qz42orOGgQ-23" style="rounded=0;html=1;labelBackgroundColor=none;startArrow=none;startFill=0;startSize=8;endArrow=open;endFill=0;endSize=16;fontFamily=Verdana;fontSize=12;dashed=1;entryX=1;entryY=0.5;entryDx=0;entryDy=0;exitX=0;exitY=0.7;exitDx=0;exitDy=0;" edge="1" parent="1" source="oFv0lDldM3Qz42orOGgQ-16">
          <mxGeometry relative="1" as="geometry">
            <mxPoint x="300" y="424.5" as="sourcePoint" />
            <mxPoint x="190" y="424.5" as="targetPoint" />
          </mxGeometry>
        </mxCell>
        <mxCell id="oFv0lDldM3Qz42orOGgQ-24" style="rounded=0;html=1;labelBackgroundColor=none;startArrow=none;startFill=0;startSize=8;endArrow=open;endFill=0;endSize=16;fontFamily=Verdana;fontSize=12;dashed=1;exitX=0;exitY=0.5;exitDx=0;exitDy=0;" edge="1" parent="1" source="oFv0lDldM3Qz42orOGgQ-21" target="oFv0lDldM3Qz42orOGgQ-15">
          <mxGeometry relative="1" as="geometry">
            <mxPoint x="565" y="562.5" as="sourcePoint" />
            <mxPoint x="635" y="562.5" as="targetPoint" />
          </mxGeometry>
        </mxCell>
        <mxCell id="oFv0lDldM3Qz42orOGgQ-26" value="Communities&lt;br&gt;Controller" style="shape=component;align=left;spacingLeft=36;rounded=0;shadow=0;comic=0;labelBackgroundColor=none;strokeWidth=1;fontFamily=Verdana;fontSize=12;html=1;" vertex="1" parent="1">
          <mxGeometry x="360" y="522" width="130" height="60" as="geometry" />
        </mxCell>
        <mxCell id="oFv0lDldM3Qz42orOGgQ-27" value="Contents&lt;br&gt;Controller" style="shape=component;align=left;spacingLeft=36;rounded=0;shadow=0;comic=0;labelBackgroundColor=none;strokeWidth=1;fontFamily=Verdana;fontSize=12;html=1;" vertex="1" parent="1">
          <mxGeometry x="501" y="522" width="130" height="60" as="geometry" />
        </mxCell>
        <mxCell id="oFv0lDldM3Qz42orOGgQ-28" value="Moderators&lt;br&gt;Controller" style="shape=component;align=left;spacingLeft=36;rounded=0;shadow=0;comic=0;labelBackgroundColor=none;strokeWidth=1;fontFamily=Verdana;fontSize=12;html=1;" vertex="1" parent="1">
          <mxGeometry x="642" y="522" width="130" height="60" as="geometry" />
        </mxCell>
        <mxCell id="oFv0lDldM3Qz42orOGgQ-29" value="Users&lt;br&gt;Controller" style="shape=component;align=left;spacingLeft=36;rounded=0;shadow=0;comic=0;labelBackgroundColor=none;strokeWidth=1;fontFamily=Verdana;fontSize=12;html=1;" vertex="1" parent="1">
          <mxGeometry x="785" y="522" width="130" height="60" as="geometry" />
        </mxCell>
        <mxCell id="oFv0lDldM3Qz42orOGgQ-31" value="Suggestions&lt;br&gt;Controller" style="shape=component;align=left;spacingLeft=36;rounded=0;shadow=0;comic=0;labelBackgroundColor=none;strokeWidth=1;fontFamily=Verdana;fontSize=12;html=1;" vertex="1" parent="1">
          <mxGeometry x="930" y="522" width="130" height="60" as="geometry" />
        </mxCell>
        <mxCell id="oFv0lDldM3Qz42orOGgQ-43" value="Moderators&lt;br&gt;Controllers" style="shape=component;align=left;spacingLeft=36;rounded=0;shadow=0;comic=0;labelBackgroundColor=none;strokeWidth=1;fontFamily=Verdana;fontSize=12;html=1;" vertex="1" parent="1">
          <mxGeometry x="640" y="644" width="130" height="60" as="geometry" />
        </mxCell>
        <mxCell id="oFv0lDldM3Qz42orOGgQ-44" value="Users&lt;br&gt;Controllers" style="shape=component;align=left;spacingLeft=36;rounded=0;shadow=0;comic=0;labelBackgroundColor=none;strokeWidth=1;fontFamily=Verdana;fontSize=12;html=1;" vertex="1" parent="1">
          <mxGeometry x="785" y="644" width="130" height="60" as="geometry" />
        </mxCell>
        <mxCell id="oFv0lDldM3Qz42orOGgQ-45" value="Suggestions&lt;br&gt;Controllers" style="shape=component;align=left;spacingLeft=36;rounded=0;shadow=0;comic=0;labelBackgroundColor=none;strokeWidth=1;fontFamily=Verdana;fontSize=12;html=1;" vertex="1" parent="1">
          <mxGeometry x="930" y="644" width="130" height="60" as="geometry" />
        </mxCell>
        <mxCell id="oFv0lDldM3Qz42orOGgQ-46" value="Categories&lt;br&gt;Service" style="shape=component;align=left;spacingLeft=36;rounded=0;shadow=0;comic=0;labelBackgroundColor=none;strokeWidth=1;fontFamily=Verdana;fontSize=12;html=1;" vertex="1" parent="1">
          <mxGeometry x="214" y="645" width="130" height="60" as="geometry" />
        </mxCell>
        <mxCell id="oFv0lDldM3Qz42orOGgQ-47" value="Communities&lt;br&gt;Controllers" style="shape=component;align=left;spacingLeft=36;rounded=0;shadow=0;comic=0;labelBackgroundColor=none;strokeWidth=1;fontFamily=Verdana;fontSize=12;html=1;" vertex="1" parent="1">
          <mxGeometry x="359" y="645" width="130" height="60" as="geometry" />
        </mxCell>
        <mxCell id="oFv0lDldM3Qz42orOGgQ-48" value="Contents&lt;br&gt;Controllers" style="shape=component;align=left;spacingLeft=36;rounded=0;shadow=0;comic=0;labelBackgroundColor=none;strokeWidth=1;fontFamily=Verdana;fontSize=12;html=1;" vertex="1" parent="1">
          <mxGeometry x="501" y="645" width="130" height="60" as="geometry" />
        </mxCell>
        <mxCell id="oFv0lDldM3Qz42orOGgQ-58" style="rounded=0;html=1;labelBackgroundColor=none;startArrow=none;startFill=0;startSize=8;endArrow=open;endFill=0;endSize=16;fontFamily=Verdana;fontSize=12;dashed=1;exitX=0.5;exitY=0;exitDx=0;exitDy=0;entryX=0.5;entryY=1;entryDx=0;entryDy=0;" edge="1" parent="1" source="oFv0lDldM3Qz42orOGgQ-46" target="oFv0lDldM3Qz42orOGgQ-17">
          <mxGeometry relative="1" as="geometry">
            <mxPoint x="585" y="795" as="sourcePoint" />
            <mxPoint x="160" y="795" as="targetPoint" />
          </mxGeometry>
        </mxCell>
        <mxCell id="oFv0lDldM3Qz42orOGgQ-59" style="rounded=0;html=1;labelBackgroundColor=none;startArrow=none;startFill=0;startSize=8;endArrow=open;endFill=0;endSize=16;fontFamily=Verdana;fontSize=12;dashed=1;exitX=0.5;exitY=0;exitDx=0;exitDy=0;entryX=0.5;entryY=1;entryDx=0;entryDy=0;" edge="1" parent="1">
          <mxGeometry relative="1" as="geometry">
            <mxPoint x="430" y="644" as="sourcePoint" />
            <mxPoint x="431" y="581" as="targetPoint" />
          </mxGeometry>
        </mxCell>
        <mxCell id="oFv0lDldM3Qz42orOGgQ-60" style="rounded=0;html=1;labelBackgroundColor=none;startArrow=none;startFill=0;startSize=8;endArrow=open;endFill=0;endSize=16;fontFamily=Verdana;fontSize=12;dashed=1;exitX=0.5;exitY=0;exitDx=0;exitDy=0;entryX=0.5;entryY=1;entryDx=0;entryDy=0;" edge="1" parent="1">
          <mxGeometry relative="1" as="geometry">
            <mxPoint x="575" y="644" as="sourcePoint" />
            <mxPoint x="576" y="581" as="targetPoint" />
          </mxGeometry>
        </mxCell>
        <mxCell id="oFv0lDldM3Qz42orOGgQ-61" style="rounded=0;html=1;labelBackgroundColor=none;startArrow=none;startFill=0;startSize=8;endArrow=open;endFill=0;endSize=16;fontFamily=Verdana;fontSize=12;dashed=1;exitX=0.5;exitY=0;exitDx=0;exitDy=0;entryX=0.5;entryY=1;entryDx=0;entryDy=0;" edge="1" parent="1">
          <mxGeometry relative="1" as="geometry">
            <mxPoint x="706.5" y="644" as="sourcePoint" />
            <mxPoint x="707.5" y="581" as="targetPoint" />
          </mxGeometry>
        </mxCell>
        <mxCell id="oFv0lDldM3Qz42orOGgQ-62" style="rounded=0;html=1;labelBackgroundColor=none;startArrow=none;startFill=0;startSize=8;endArrow=open;endFill=0;endSize=16;fontFamily=Verdana;fontSize=12;dashed=1;exitX=0.5;exitY=0;exitDx=0;exitDy=0;entryX=0.5;entryY=1;entryDx=0;entryDy=0;" edge="1" parent="1">
          <mxGeometry relative="1" as="geometry">
            <mxPoint x="860" y="645" as="sourcePoint" />
            <mxPoint x="861" y="582" as="targetPoint" />
          </mxGeometry>
        </mxCell>
        <mxCell id="oFv0lDldM3Qz42orOGgQ-63" style="rounded=0;html=1;labelBackgroundColor=none;startArrow=none;startFill=0;startSize=8;endArrow=open;endFill=0;endSize=16;fontFamily=Verdana;fontSize=12;dashed=1;exitX=0.5;exitY=0;exitDx=0;exitDy=0;entryX=0.5;entryY=1;entryDx=0;entryDy=0;" edge="1" parent="1">
          <mxGeometry relative="1" as="geometry">
            <mxPoint x="1000" y="644" as="sourcePoint" />
            <mxPoint x="1001" y="581" as="targetPoint" />
          </mxGeometry>
        </mxCell>
        <mxCell id="oFv0lDldM3Qz42orOGgQ-64" style="rounded=0;html=1;labelBackgroundColor=none;startArrow=none;startFill=0;startSize=8;endArrow=open;endFill=0;endSize=16;fontFamily=Verdana;fontSize=12;dashed=1;exitX=0.5;exitY=0;exitDx=0;exitDy=0;entryX=0.5;entryY=1;entryDx=0;entryDy=0;" edge="1" parent="1">
          <mxGeometry relative="1" as="geometry">
            <mxPoint x="290" y="518" as="sourcePoint" />
            <mxPoint x="291" y="455" as="targetPoint" />
          </mxGeometry>
        </mxCell>
        <mxCell id="oFv0lDldM3Qz42orOGgQ-65" style="rounded=0;html=1;labelBackgroundColor=none;startArrow=none;startFill=0;startSize=8;endArrow=open;endFill=0;endSize=16;fontFamily=Verdana;fontSize=12;dashed=1;exitX=0.5;exitY=0;exitDx=0;exitDy=0;entryX=0.75;entryY=1;entryDx=0;entryDy=0;" edge="1" parent="1" target="oFv0lDldM3Qz42orOGgQ-16">
          <mxGeometry relative="1" as="geometry">
            <mxPoint x="430" y="522" as="sourcePoint" />
            <mxPoint x="431" y="459" as="targetPoint" />
          </mxGeometry>
        </mxCell>
        <mxCell id="oFv0lDldM3Qz42orOGgQ-66" style="rounded=0;html=1;labelBackgroundColor=none;startArrow=none;startFill=0;startSize=8;endArrow=open;endFill=0;endSize=16;fontFamily=Verdana;fontSize=12;dashed=1;exitX=0.5;exitY=0;exitDx=0;exitDy=0;entryX=1;entryY=0.867;entryDx=0;entryDy=0;entryPerimeter=0;" edge="1" parent="1" target="oFv0lDldM3Qz42orOGgQ-16">
          <mxGeometry relative="1" as="geometry">
            <mxPoint x="577" y="522" as="sourcePoint" />
            <mxPoint x="465" y="455" as="targetPoint" />
          </mxGeometry>
        </mxCell>
        <mxCell id="oFv0lDldM3Qz42orOGgQ-69" style="rounded=0;html=1;labelBackgroundColor=none;startArrow=none;startFill=0;startSize=8;endArrow=open;endFill=0;endSize=16;fontFamily=Verdana;fontSize=12;dashed=1;exitX=0.5;exitY=0;exitDx=0;exitDy=0;entryX=1;entryY=0.5;entryDx=0;entryDy=0;" edge="1" parent="1" target="oFv0lDldM3Qz42orOGgQ-16">
          <mxGeometry relative="1" as="geometry">
            <mxPoint x="722" y="522" as="sourcePoint" />
            <mxPoint x="610" y="455" as="targetPoint" />
          </mxGeometry>
        </mxCell>
        <mxCell id="oFv0lDldM3Qz42orOGgQ-71" style="rounded=0;html=1;labelBackgroundColor=none;startArrow=none;startFill=0;startSize=8;endArrow=open;endFill=0;endSize=16;fontFamily=Verdana;fontSize=12;dashed=1;exitX=0.5;exitY=0;exitDx=0;exitDy=0;" edge="1" parent="1" target="oFv0lDldM3Qz42orOGgQ-16">
          <mxGeometry relative="1" as="geometry">
            <mxPoint x="1012" y="522" as="sourcePoint" />
            <mxPoint x="900" y="455" as="targetPoint" />
          </mxGeometry>
        </mxCell>
        <mxCell id="oFv0lDldM3Qz42orOGgQ-72" style="rounded=0;html=1;labelBackgroundColor=none;startArrow=none;startFill=0;startSize=8;endArrow=open;endFill=0;endSize=16;fontFamily=Verdana;fontSize=12;dashed=1;exitX=0.5;exitY=0;exitDx=0;exitDy=0;" edge="1" parent="1" target="oFv0lDldM3Qz42orOGgQ-16">
          <mxGeometry relative="1" as="geometry">
            <mxPoint x="847" y="522" as="sourcePoint" />
            <mxPoint x="735" y="455" as="targetPoint" />
          </mxGeometry>
        </mxCell>
        <mxCell id="oFv0lDldM3Qz42orOGgQ-73" style="rounded=0;html=1;labelBackgroundColor=none;startArrow=none;startFill=0;startSize=8;endArrow=open;endFill=0;endSize=16;fontFamily=Verdana;fontSize=12;dashed=1;exitX=0;exitY=0.25;exitDx=0;exitDy=0;entryX=0.5;entryY=1;entryDx=0;entryDy=0;" edge="1" parent="1" source="oFv0lDldM3Qz42orOGgQ-21" target="oFv0lDldM3Qz42orOGgQ-46">
          <mxGeometry relative="1" as="geometry">
            <mxPoint x="465" y="773" as="sourcePoint" />
            <mxPoint x="466" y="710" as="targetPoint" />
          </mxGeometry>
        </mxCell>
        <mxCell id="oFv0lDldM3Qz42orOGgQ-74" style="rounded=0;html=1;labelBackgroundColor=none;startArrow=none;startFill=0;startSize=8;endArrow=open;endFill=0;endSize=16;fontFamily=Verdana;fontSize=12;dashed=1;exitX=0;exitY=0;exitDx=0;exitDy=0;entryX=0.5;entryY=1;entryDx=0;entryDy=0;" edge="1" parent="1" source="oFv0lDldM3Qz42orOGgQ-21" target="oFv0lDldM3Qz42orOGgQ-47">
          <mxGeometry relative="1" as="geometry">
            <mxPoint x="585" y="783" as="sourcePoint" />
            <mxPoint x="289" y="715" as="targetPoint" />
          </mxGeometry>
        </mxCell>
        <mxCell id="oFv0lDldM3Qz42orOGgQ-75" style="rounded=0;html=1;labelBackgroundColor=none;startArrow=none;startFill=0;startSize=8;endArrow=open;endFill=0;endSize=16;fontFamily=Verdana;fontSize=12;dashed=1;exitX=0.25;exitY=0;exitDx=0;exitDy=0;entryX=0.5;entryY=1;entryDx=0;entryDy=0;" edge="1" parent="1" source="oFv0lDldM3Qz42orOGgQ-21" target="oFv0lDldM3Qz42orOGgQ-48">
          <mxGeometry relative="1" as="geometry">
            <mxPoint x="585" y="770" as="sourcePoint" />
            <mxPoint x="434" y="715" as="targetPoint" />
          </mxGeometry>
        </mxCell>
        <mxCell id="oFv0lDldM3Qz42orOGgQ-76" style="rounded=0;html=1;labelBackgroundColor=none;startArrow=none;startFill=0;startSize=8;endArrow=open;endFill=0;endSize=16;fontFamily=Verdana;fontSize=12;dashed=1;exitX=0.75;exitY=0;exitDx=0;exitDy=0;entryX=0.5;entryY=1;entryDx=0;entryDy=0;" edge="1" parent="1" source="oFv0lDldM3Qz42orOGgQ-21" target="oFv0lDldM3Qz42orOGgQ-43">
          <mxGeometry relative="1" as="geometry">
            <mxPoint x="613" y="770" as="sourcePoint" />
            <mxPoint x="576" y="715" as="targetPoint" />
          </mxGeometry>
        </mxCell>
        <mxCell id="oFv0lDldM3Qz42orOGgQ-77" style="rounded=0;html=1;labelBackgroundColor=none;startArrow=none;startFill=0;startSize=8;endArrow=open;endFill=0;endSize=16;fontFamily=Verdana;fontSize=12;dashed=1;exitX=1;exitY=0;exitDx=0;exitDy=0;entryX=0.5;entryY=1;entryDx=0;entryDy=0;" edge="1" parent="1" source="oFv0lDldM3Qz42orOGgQ-21" target="oFv0lDldM3Qz42orOGgQ-44">
          <mxGeometry relative="1" as="geometry">
            <mxPoint x="668" y="770" as="sourcePoint" />
            <mxPoint x="715" y="714" as="targetPoint" />
          </mxGeometry>
        </mxCell>
        <mxCell id="oFv0lDldM3Qz42orOGgQ-78" style="rounded=0;html=1;labelBackgroundColor=none;startArrow=none;startFill=0;startSize=8;endArrow=open;endFill=0;endSize=16;fontFamily=Verdana;fontSize=12;dashed=1;exitX=1;exitY=0.5;exitDx=0;exitDy=0;entryX=0.5;entryY=1;entryDx=0;entryDy=0;" edge="1" parent="1" source="oFv0lDldM3Qz42orOGgQ-21" target="oFv0lDldM3Qz42orOGgQ-45">
          <mxGeometry relative="1" as="geometry">
            <mxPoint x="695" y="770" as="sourcePoint" />
            <mxPoint x="860" y="714" as="targetPoint" />
          </mxGeometry>
        </mxCell>
      </root>
    </mxGraphModel>
  </diagram>
</mxfile>
